<svg xmlns="http://www.w3.org/2000/svg" version="1.1" xmlns:xlink="http://www.w3.org/1999/xlink" viewBox="0 0 12.092070984943943 12.85765277777996"><g transform="matrix(1,0,0,1,1.0389843941077137,10.395876383672245)"><rect width="12.85765277777996" height="12.85765277777996" x="-1.421775290525722" y="-10.395876383672247" fill="#ffffff"></rect><g clip-path="url(#SvgjsClipPath1002)"><g clip-path="url(#SvgjsClipPath100077682af1-c926-4189-9279-94b2dff8fc11)"><path d=" M 2.541074812456945 -8.343593429067978 C 2.685676132263043 -8.588374807252663 2.853946155950462 -8.818377573364508 3.043466535728349 -9.030296167273837 C 2.4466513380714408 -8.793667407350265 1.901477828525422 -8.443371971288437 1.4382302148983386 -7.998868654488641 C 1.6967677261451317 -7.896167718790683 1.961317026391607 -7.80929941527702 2.230410493692604 -7.738745657256258 C 2.319967900149705 -7.947249283339132 2.4237678849230058 -8.14934262239379 2.541074812456945 -8.343593429067985 Z M 7.198842145159618 -2.0924010626324323 C 7.460860482081642 -2.8233862541674304 7.605125218729731 -3.591345645977319 7.626245929418942 -4.367584574856071 L 5.222511664603165 -4.367584574856071 L 5.222511664603165 -2.3047295492856845 C 5.828147600279318 -2.291693549483294 6.431867141789621 -2.231817501253185 7.028265184989276 -2.125637475161602 C 7.085398852808015 -2.1173970423031276 7.141983158436173 -2.1044870308248536 7.198842145159618 -2.0924010626324323 Z M 1.6228159109280713 -4.367584574856071 L -0.0005493621905703138 -4.367584574856071 C 0.06339618086775732 -3.359481637232692 0.4551143432702252 -2.3999120042408872 1.1149305657510273 -1.635057038987318 C 1.4249605543362813 -1.7641996837987453 1.743408720431485 -1.8721233274091063 2.0680739663807364 -1.9580820070393532 C 1.79597912637991 -2.7334002884457824 1.6457746789114487 -3.546227810465127 1.6228159109280782 -4.367584574856071 Z M 2.0211034990874697 -7.198997305026458 C 1.6804194252506741 -7.29175682571743 1.3467572470047098 -7.408607431744144 1.0226377177361663 -7.5486663393208815 C 0.4204991592450131 -6.8062516405840725 0.06323301689769692 -5.895477276625325 -6.997134922647238e-15 -4.941668063996167 L 1.6233652731186345 -4.941668063996167 C 1.64734733276032 -5.709256397182212 1.781290278887976 -6.469438117677409 2.0211034990874834 -7.1989973050265075 Z M 7.249932828882136 -7.061656757385286 C 7.224536466990525 -7.058434131703292 7.199390249462029 -7.053478307810814 7.174670208774769 -7.046823978240038 C 6.5309423283661925 -6.923066656130784 5.87788840919391 -6.854058144339813 5.222511664603158 -6.840538475683 L 5.222511664603158 -4.941942745091447 L 7.626245929418942 -4.941942745091447 C 7.604794292585983 -5.66307898343034 7.478015626626925 -6.377203775551538 7.249932828882114 -7.061656757385348 Z M 8.22450135494388 -4.941942745091447 L 9.847591946967242 -4.941942745091447 C 9.785515230977252 -5.896058603139855 9.428009972264741 -6.807197811099163 8.824679548135792 -7.5489410204161755 C 8.50188551140327 -7.409262308650733 8.169718233539312 -7.2923291470042315 7.830608664309 -7.198997305026458 C 8.070577879283158 -6.469517441467543 8.20326197431282 -5.7090358675144035 8.224501354943873 -4.941393382900873 Z M 7.620202945322735 -7.7401190627326715 C 7.88903548611257 -7.811251491808891 8.153459120711519 -7.898108648231089 8.412108543021695 -8.000242059965041 C 7.948305348014579 -8.444040619319921 7.403277284182574 -8.794242600786236 6.806872222191724 -9.031669572750245 C 6.995488259846776 -8.819797503580887 7.162668514308641 -8.589775139158956 7.305967772319741 -8.34496683454439 C 7.423295604225222 -8.149906597048078 7.5283363597117265 -7.9477146100679334 7.6204776264180145 -7.739569700542105 Z M 2.600955291228497 -7.061656757385286 C 2.3721929674345676 -6.3773473431554955 2.2451259525981415 -5.663162235003506 2.223818147405844 -4.941942745091447 L 4.624530920173506 -4.941942745091447 L 4.624530920173506 -6.840538475683 C 3.969787229362164 -6.854005947061001 3.3173675437676784 -6.923015409579514 2.6742951436688975 -7.046823978240031 C 2.6487498018076208 -7.052317600145685 2.625127227613346 -7.058085903146612 2.6012299723237766 -7.061656757385286 Z M 6.91729402249522 -1.5639146353092128 C 6.357443054947864 -1.6634072493115006 5.790732219275846 -1.719426307772042 5.222236983507914 -1.7314701034314481 L 5.222236983507914 0.059450637809428386 C 5.823513901080938 -0.0603103197336754 6.370678642883359 -0.5324871225240226 6.791764761951196 -1.2381428563043517 C 6.851645240722741 -1.339774861558821 6.908504227446193 -1.444428358861396 6.965637895264918 -1.554850159164892 Z M 2.289741610273603 -1.423277914524654 C 2.0395463277892905 -1.3591093225078081 1.7930613934808044 -1.281257496158144 1.5513988261546512 -1.1900736646299404 C 1.9898529180103348 -0.7960683357084335 2.4950146433541334 -0.48335360166206165 3.043191854633062 -0.26659582229072676 C 2.8536425765486175 -0.4777018271539042 2.6853650067746204 -0.7069788659055689 2.540800131361665 -0.9511011117343138 C 2.451254094299617 -1.1010769897584591 2.367751041333783 -1.2584692573552463 2.290016291368883 -1.42272855233408 Z M 7.305967772319734 -0.9511011117343138 C 7.16270380479134 -0.7069528017522941 6.995516024330537 -0.4776561870531708 6.80687222219171 -0.26659582229071255 C 7.353712238358248 -0.4840401245751398 7.857675123165695 -0.7967035714698838 8.295369077526734 -1.1900736646299546 C 8.0537991418372 -1.281255762491611 7.807405723541756 -1.3591076464264171 7.557300974503083 -1.423277914524654 C 7.479840905633456 -1.2584692573552463 7.396063171572342 -1.1010769897584591 7.306242453415014 -0.9505517495437328 Z M 7.778419256205362 -1.9586313692299413 C 8.103506006219632 -1.8734788891924934 8.422192003082564 -1.7655368579969872 8.732112019025644 -1.6356064011779132 C 9.39273619384065 -2.3999414945249313 9.784486439252483 -3.359826085992168 9.847317265871963 -4.368133937046651 L 8.224226673848607 -4.368133937046651 C 8.204336186245836 -3.546252727332935 8.053949497606538 -2.732755312954903 7.778693937300628 -1.9580820070393186 Z M 2.886348949226848 -1.5543007969743252 C 2.9387463618909093 -1.4458766990884042 2.99659487045226 -1.3401725305127403 3.059672720350003 -1.2375934941137778 C 3.48103352051312 -0.5319377603334559 4.0281982623155415 -0.05976095754310151 4.625354963459353 0.05999999999999517 L 4.625354963459353 -1.7309207412408814 C 4.056771231175625 -1.7188351970283753 3.4899723235551634 -1.6628165104359436 2.9300232433767386 -1.563365273118646 Z M 2.6531446993321413 -2.0924010626324323 C 2.708080918388606 -2.1044870308248598 2.7630171374450776 -2.116572999017281 2.8234469784071896 -2.125637475161602 C 3.4188298245190887 -2.2318084119947645 4.021544538002267 -2.2916849917892153 4.6261790067451996 -2.3047295492856907 L 4.6261790067451996 -4.367584574856071 L 2.2224447419294235 -4.367584574856071 C 2.243904404474082 -3.591211803364942 2.3888269545144767 -2.8232057368360497 2.651771293855714 -2.092401062632474 Z M 6.793412848522876 -8.059573176546033 C 6.372326729455052 -8.765228910326368 5.825161987652625 -9.237405713116715 5.223885070079579 -9.356891989564533 L 5.223885070079579 -7.413797921537243 C 5.831017643294272 -7.427384989946985 6.436034726116133 -7.49040377506934 7.0329347636090835 -7.60222915290094 C 6.95684810021587 -7.763741636926947 6.875817177107583 -7.916189644808654 6.792039443046469 -8.059573176546033 Z M 3.059672720350003 -8.059573176546033 C 2.970614144875612 -7.911670044038102 2.8897363860603322 -7.758992642192931 2.8174039943109683 -7.602229152900926 C 3.414213695792704 -7.490418603235657 4.019138311651147 -7.4273998809153925 4.626179006745179 -7.41379792153725 L 4.626179006745179 -9.356891989564533 C 4.026824856839134 -9.237405713116715 3.479660115036707 -8.764679548135808 3.058299314873597 -8.059573176546033 Z" fill="#173054" transform="matrix(1,0,0,1,0,0)" fill-rule="nonzero"></path></g></g><g><path d=" M 0.355698 0.271008 L 0.355698 0.43333050000000006 L 0.6732855 0.43333050000000006 L 0.6732855 0.6436440000000001 L 0.355698 0.6436440000000001 L 0.355698 0.8229045 L 0.7156305 0.8229045 L 0.7156305 1.04451 L 0.079044 1.04451 L 0.079044 0.049402500000000016 L 0.7156305 0.049402500000000016 L 0.7156305 0.271008 L 0.355698 0.271008 M 1.414384587714844 1.04451 L 1.2718230877148438 0.8454885000000001 L 1.1589030877148438 1.04451 L 0.8554305877148438 1.04451 L 1.1193810877148438 0.6337635 L 0.8441385877148438 0.2526585 L 1.154668587714844 0.2526585 L 1.2972300877148437 0.4516800000000001 L 1.4115615877148437 0.2526585 L 1.7150340877148438 0.2526585 L 1.445437587714844 0.6563475000000001 L 1.724914587714844 1.04451 L 1.414384587714844 1.04451 M 2.243020797744141 0.27524250000000006 Q 2.3023037977441407 0.24277800000000005 2.382759297744141 0.24277800000000005 Q 2.477329797744141 0.24277800000000005 2.554256547744141 0.29218050000000007 Q 2.631183297744141 0.3415830000000001 2.675645547744141 0.43333050000000006 Q 2.7201077977441406 0.525078 2.7201077977441406 0.6478785 Q 2.7201077977441406 0.7706790000000001 2.675645547744141 0.86313225 Q 2.631183297744141 0.9555855000000001 2.554256547744141 1.004988 Q 2.477329797744141 1.0543905 2.382759297744141 1.0543905 Q 2.3023037977441407 1.0543905 2.243726547744141 1.0219260000000001 Q 2.185149297744141 0.9894615 2.1512732977441407 0.934413 L 2.1512732977441407 1.422792 L 1.874619297744141 1.422792 L 1.874619297744141 0.2526585 L 2.1512732977441407 0.2526585 L 2.1512732977441407 0.3627555 Q 2.183737797744141 0.30770700000000006 2.243020797744141 0.27524250000000006 M 2.3975800477441407 0.52719525 Q 2.355940797744141 0.4841445000000001 2.295246297744141 0.4841445000000001 Q 2.2345517977441407 0.4841445000000001 2.192912547744141 0.5279010000000001 Q 2.1512732977441407 0.5716575 2.1512732977441407 0.6478785 Q 2.1512732977441407 0.725511 2.192912547744141 0.7692675 Q 2.2345517977441407 0.8130240000000001 2.295246297744141 0.8130240000000001 Q 2.355940797744141 0.8130240000000001 2.3975800477441407 0.76856175 Q 2.439219297744141 0.7240995000000001 2.439219297744141 0.6478785 Q 2.439219297744141 0.570246 2.3975800477441407 0.52719525 M 3.178933764609375 0 L 3.178933764609375 1.04451 L 2.9022797646093754 1.04451 L 2.9022797646093754 0 L 3.178933764609375 0 M 3.5608198865039067 1.004988 Q 3.466955136503907 0.9555855000000001 3.4133181365039067 0.8638380000000001 Q 3.3596811365039065 0.7720905 3.3596811365039065 0.6478785 Q 3.3596811365039065 0.525078 3.4140238865039065 0.43333050000000006 Q 3.468366636503907 0.3415830000000001 3.562231386503907 0.29218050000000007 Q 3.6560961365039066 0.24277800000000005 3.7746621365039066 0.24277800000000005 Q 3.8932281365039065 0.24277800000000005 3.987092886503907 0.29218050000000007 Q 4.080957636503907 0.3415830000000001 4.135300386503907 0.43333050000000006 Q 4.189643136503907 0.525078 4.189643136503907 0.6478785 Q 4.189643136503907 0.7706790000000001 4.135300386503907 0.86313225 Q 4.080957636503907 0.9555855000000001 3.9863871365039065 1.004988 Q 3.891816636503907 1.0543905 3.773250636503907 1.0543905 Q 3.654684636503907 1.0543905 3.5608198865039067 1.004988 M 3.8699383865039065 0.7713847500000001 Q 3.9087546365039065 0.728334 3.9087546365039065 0.6478785 Q 3.9087546365039065 0.567423 3.8699383865039065 0.525078 Q 3.8311221365039065 0.4827330000000001 3.7746621365039066 0.4827330000000001 Q 3.7182021365039066 0.4827330000000001 3.680091636503907 0.525078 Q 3.6419811365039068 0.567423 3.6419811365039068 0.6478785 Q 3.6419811365039068 0.7297455 3.678680136503907 0.7720905 Q 3.715379136503907 0.8144355000000001 3.773250636503907 0.8144355000000001 Q 3.8311221365039065 0.8144355000000001 3.8699383865039065 0.7713847500000001 M 4.7599686436523445 0.285123 Q 4.826309143652344 0.24560100000000007 4.902530143652344 0.24560100000000007 L 4.902530143652344 0.5406045 L 4.824897643652344 0.5406045 Q 4.734561643652344 0.5406045 4.690805143652344 0.5758920000000001 Q 4.647048643652345 0.6111795 4.647048643652345 0.6986925 L 4.647048643652345 1.04451 L 4.370394643652344 1.04451 L 4.370394643652344 0.2526585 L 4.647048643652345 0.2526585 L 4.647048643652345 0.3923970000000001 Q 4.693628143652345 0.3246450000000001 4.7599686436523445 0.285123 M 5.821545773847657 0.7043385 L 5.297879273847657 0.7043385 Q 5.3021137738476565 0.7692675 5.333872523847657 0.80102625 Q 5.365631273847657 0.8327850000000001 5.415033773847657 0.8327850000000001 Q 5.4841972738476565 0.8327850000000001 5.513838773847657 0.7706790000000001 L 5.808842273847657 0.7706790000000001 Q 5.790492773847657 0.852546 5.737561523847657 0.9167692500000001 Q 5.684630273847657 0.9809925 5.604174773847657 1.0176915 Q 5.523719273847657 1.0543905 5.4263257738476565 1.0543905 Q 5.309171273847657 1.0543905 5.218129523847657 1.004988 Q 5.127087773847657 0.9555855000000001 5.075568023847657 0.8638380000000001 Q 5.024048273847657 0.7720905 5.024048273847657 0.6478785 Q 5.024048273847657 0.5236665 5.074862273847657 0.43262475 Q 5.125676273847657 0.3415830000000001 5.2167180238476565 0.29218050000000007 Q 5.307759773847657 0.24277800000000005 5.4263257738476565 0.24277800000000005 Q 5.543480273847657 0.24277800000000005 5.633816273847657 0.29076900000000006 Q 5.724152273847657 0.33876000000000006 5.774966273847657 0.4283902500000001 Q 5.8257802738476565 0.5180205000000001 5.8257802738476565 0.6394095000000001 Q 5.8257802738476565 0.6718740000000001 5.821545773847657 0.7043385 M 5.543480273847657 0.570246 Q 5.543480273847657 0.519432 5.509604273847657 0.4904962500000001 Q 5.475728273847657 0.46156050000000004 5.424914273847657 0.46156050000000004 Q 5.374100273847657 0.46156050000000004 5.341635773847657 0.48908475000000007 Q 5.309171273847657 0.5166090000000001 5.299290773847657 0.570246 L 5.543480273847657 0.570246 M 6.932603532773438 1.04451 L 6.6206620327734385 0.6083565000000001 L 6.6206620327734385 1.04451 L 6.344008032773438 1.04451 L 6.344008032773438 0.049402500000000016 L 6.6206620327734385 0.049402500000000016 L 6.6206620327734385 0.47849850000000005 L 6.929780532773438 0.049402500000000016 L 7.248779532773439 0.049402500000000016 L 6.883201032773438 0.5321355000000001 L 7.267129032773438 1.04451 L 6.932603532773438 1.04451 M 8.838245946416016 0.049402500000000016 L 8.594056446416015 1.04451 L 8.253884946416015 1.04451 L 8.116969446416016 0.4347420000000001 L 7.977230946416016 1.04451 L 7.637059446416016 1.04451 L 7.395692946416016 0.049402500000000016 L 7.694930946416016 0.049402500000000016 L 7.810673946416016 0.7297455 L 7.967350446416016 0.049402500000000016 L 8.270822946416017 0.049402500000000016 L 8.423264946416015 0.7240995000000001 L 8.539007946416016 0.049402500000000016 L 8.838245946416016 0.049402500000000016 M 9.050759649609375 0.28300575000000006 Q 9.112159899609376 0.16796850000000008 9.225079899609375 0.10374525000000001 Q 9.337999899609375 0.03952200000000006 9.484795899609376 0.03952200000000006 Q 9.671113899609376 0.03952200000000006 9.798148899609375 0.13903275000000004 Q 9.925183899609374 0.23854350000000002 9.961882899609375 0.409335 L 9.664056399609375 0.409335 Q 9.637237899609374 0.35287500000000005 9.589952649609375 0.32323350000000006 Q 9.542667399609375 0.2935920000000001 9.480561399609375 0.2935920000000001 Q 9.384579399609375 0.2935920000000001 9.327413649609374 0.36204975000000006 Q 9.270247899609375 0.43050750000000004 9.270247899609375 0.5448390000000001 Q 9.270247899609375 0.660582 9.327413649609374 0.7290397500000001 Q 9.384579399609375 0.7974975000000001 9.480561399609375 0.7974975000000001 Q 9.542667399609375 0.7974975000000001 9.589952649609375 0.7678560000000001 Q 9.637237899609374 0.7382145 9.664056399609375 0.6817545 L 9.961882899609375 0.6817545 Q 9.925183899609374 0.852546 9.798148899609375 0.95205675 Q 9.671113899609376 1.0515675 9.484795899609376 1.0515675 Q 9.337999899609375 1.0515675 9.225079899609375 0.98734425 Q 9.112159899609376 0.9231210000000001 9.050759649609375 0.80808375 Q 8.989359399609375 0.6930465000000001 8.989359399609375 0.5448390000000001 Q 8.989359399609375 0.39804300000000004 9.050759649609375 0.28300575000000006" fill="#173054" fill-rule="nonzero"></path></g><g></g></g><defs><clipPath id="SvgjsClipPath1002"><path d=" M 0 -9.356891989564533 h 9.847591946967245 v 9.416891989564533 h -9.847591946967245 Z"></path></clipPath><clipPath id="SvgjsClipPath100077682af1-c926-4189-9279-94b2dff8fc11"><path d=" M 0 -9.356891989564533 L 9.847591946967245 -9.356891989564533 L 9.847591946967245 0.060000000000002274 L 0 0.060000000000002274 Z"></path></clipPath></defs></svg>